<svg width="21" height="18" viewBox="0 0 21 18" fill="none" xmlns="http://www.w3.org/2000/svg">
<path d="M3.54107 12.3938H7.96741V14.1643H3.54107M3.54107 8.85268H10.6232V10.6232H3.54107M1.77054 0C0.787888 0 0 0.787888 0 1.77054V15.9348C0 16.9175 0.787888 17.7054 1.77054 17.7054H12.3938C13.3764 17.7054 14.1643 16.9175 14.1643 15.9348V5.31161L8.85268 0M1.77054 1.77054H7.96741V6.19688H12.3938V15.9348H1.77054V1.77054Z" fill="#2196F3"/>
<rect x="2.93042" y="7.69141" width="8.42531" height="7.32635" fill="white"/>
<path d="M20.2167 6.19118C20.3268 6.04438 20.4565 5.83197 20.4792 5.57227C20.5521 5.25713 20.4237 4.98744 20.3102 4.81709C20.1936 4.64228 20.0304 4.47922 19.9091 4.35801C19.9039 4.35277 19.8987 4.3476 19.8936 4.34252C19.8178 4.26676 19.7637 4.21174 19.7241 4.16491C19.7637 4.11808 19.8178 4.06305 19.8936 3.9873L19.9286 3.95229L19.9561 3.9111C20.0997 3.6957 20.1728 3.44418 20.1728 3.20218C20.1728 2.96484 20.1003 2.6902 19.8936 2.48346L18.6542 1.24408L18.6192 1.20907L18.578 1.18161C18.3626 1.03801 18.1111 0.964844 17.8691 0.964844C17.6336 0.964844 17.3615 1.03619 17.1553 1.23917L15.2111 3.09502L14.8409 3.44838L14.8935 3.50096L14.5831 3.81136L9.53707 8.85738L9.39062 9.00383V9.21094V11.2471V11.7471H9.89062H11.9267H12.1338L12.2803 11.6006L15.9547 7.92619L16.0881 8.05954L16.8848 8.85628L17.2383 9.20983L17.5919 8.85628L19.8051 6.64311L19.8169 6.63128C19.9412 6.507 20.0955 6.35279 20.2167 6.19118Z" fill="#2196F3" stroke="white"/>
<path d="M2.93042 8.42578L8.42519 8.42578" stroke="#2196F3"/>
<path d="M3.11377 13.9177C3.29693 11.3535 3.29693 10.4377 4.02956 11.3535C4.7622 12.2693 5.49483 13.5514 6.22747 13.3682C6.96011 13.185 6.04431 9.88819 7.50958 11.1703C8.97485 12.4524 9.34117 14.4672 10.0738 13.0019C10.1329 12.8837 10.6233 11.7198 10.6233 11.7198" stroke="#2196F3"/>
</svg>
