<svg width="119" height="44" viewBox="0 0 119 44" fill="none" xmlns="http://www.w3.org/2000/svg">
<g id="Camada_1" clip-path="url(#clip0_109_27626)">
<path id="Vector" d="M15.7594 27.1324C15.8579 27.6941 15.9733 28.2507 16.1041 28.8024C15.9733 28.2524 15.8579 27.6958 15.7594 27.1324Z" fill="#EBC139"/>
<path id="Vector_2" d="M17.3691 11.3026C15.9105 11.4569 14.4824 11.7134 13.0935 12.0655C12.7521 12.1527 12.4125 12.2466 12.0763 12.3439C11.5771 12.4897 11.0813 12.6474 10.5922 12.8184C10.3528 12.9022 10.1151 12.9877 9.87907 13.0783L14.3398 17.939L14.8611 18.5074C14.9596 17.9977 15.0937 17.4997 15.2669 17.0202C15.4503 16.5105 15.6694 16.0192 15.9275 15.5497C16.0243 15.372 16.1295 15.1993 16.2365 15.0283C16.7816 14.1614 17.454 13.3818 18.2283 12.7111L17.3691 11.3043V11.3026Z" fill="#00AE59"/>
<path id="Vector_3" d="M32.9927 8.98209C32.7397 5.21957 30.5849 1.96677 27.4588 0.132459C26.9121 0.0720982 26.3585 0.0318573 25.7998 0.0134136C25.5689 0.00670681 25.338 0 25.107 0C22.6687 0 20.3305 0.419175 18.157 1.18375L25.6725 2.32558L25.6657 2.35577L23.9235 7.30371L22.8317 10.4006C23.5635 10.2396 24.3242 10.1524 25.107 10.1524C25.6521 10.1524 26.1887 10.1943 26.7117 10.2731C27.5947 10.4073 28.4403 10.6521 29.2367 10.9908C30.4525 11.5089 31.5477 12.2466 32.4714 13.1554C32.828 12.0739 33.0216 10.922 33.0216 9.72654C33.0216 9.47672 33.0097 9.22856 32.9927 8.98209Z" fill="#4A148C"/>
<path id="Vector_4" d="M45.4733 24.2132C45.7025 22.996 45.8231 21.7401 45.8231 20.4558C45.8231 16.4552 44.6599 12.7245 42.6494 9.57229C41.0839 7.1176 39.0055 5.01502 36.5637 3.41042C36.7827 4.32086 36.9016 5.2682 36.9016 6.24404C36.9016 7.13605 36.8031 8.00625 36.6197 8.8446C36.1799 10.855 35.2392 12.6842 33.9334 14.2017C33.8383 14.3123 33.7416 14.4213 33.6431 14.5286C34.4411 15.647 35.0219 16.9297 35.3173 18.3163C35.4651 19.0071 35.5449 19.723 35.5449 20.4574C35.5449 22.674 34.8334 24.7263 33.6278 26.4064L30.989 22.6606L28.9259 30.0482L28.0446 33.2004L26.9138 37.2496L26.9087 37.2798L35.7062 38.0376L42.2181 38.5977L39.6796 34.9944C39.8528 34.8251 40.026 34.6557 40.1924 34.4814C42.86 31.6846 44.738 28.1468 45.4767 24.2149L45.4733 24.2132Z" fill="#202F33"/>
<path id="Vector_5" d="M26.9053 37.2798L26.9104 37.2496L28.0413 33.2004L28.9225 30.0482C27.7407 30.5076 26.4536 30.7624 25.1071 30.7624C24.6741 30.7624 24.2479 30.7339 23.8284 30.682C23.7164 30.6686 23.6043 30.6535 23.4939 30.635L25.5265 26.7434L18.3574 28.3078L16.1058 28.799L10.5617 30.0096L10.5311 30.0197L13.7642 37.5732L16.5133 43.9966L18.6545 39.8971C19.7735 40.2593 20.9333 40.5292 22.1253 40.6986C23.1 40.8377 24.095 40.9098 25.1071 40.9098C28.9803 40.9098 32.6022 39.8586 35.7028 38.0326L26.9053 37.2748V37.2798Z" fill="#A23900"/>
<path id="Vector_6" d="M19.8177 37.5682C19.619 37.2546 19.4254 36.9377 19.2369 36.6175C19.4237 36.9377 19.6173 37.2546 19.8177 37.5682Z" fill="#A23900"/>
<path id="Vector_7" d="M15.4045 24.2568C15.3569 24.1395 15.3145 24.0204 15.2703 23.9014L19.6428 23.7169L14.8611 18.5074L14.3398 17.939L9.87908 13.0783L9.35099 12.5032L9.32722 12.483L8.40009 13.6819L4.45895 18.7774L-9.15527e-05 24.5419L4.7629 24.3424C5.20099 26.5908 6.00926 28.7085 7.12656 30.63C8.75498 33.4301 11.0354 35.811 13.7625 37.5766L10.5294 30.023L10.56 30.013L16.1041 28.8024L18.3557 28.3111C17.0635 27.228 16.0429 25.8397 15.4062 24.2568H15.4045Z" fill="#EBC139"/>
<path id="Vector_8" d="M18.157 1.18376L10.4836 0.0184479L12.8795 3.94528C12.4737 4.23871 12.078 4.54387 11.696 4.86412C11.6926 4.86747 11.6875 4.87082 11.6841 4.87418C11.4532 5.06867 11.2273 5.26652 11.0066 5.47108C8.1284 8.11189 6.01265 11.5508 5.02099 15.4324C4.74421 16.5155 4.55573 17.6339 4.46234 18.7774L8.40348 13.6819L9.33061 12.483L9.35438 12.5032L9.88247 13.0783C10.1185 12.9894 10.3562 12.9022 10.5956 12.8184C11.0847 12.6474 11.5788 12.4898 12.0797 12.3439C12.4159 12.245 12.7555 12.1511 13.0968 12.0655C14.4858 11.7134 15.9122 11.4569 17.3725 11.3026L18.2317 12.7094L20.6344 16.6463L22.8351 10.3972L23.9269 7.30036L25.6691 2.35242L25.6759 2.32224L18.1604 1.1804L18.157 1.18376Z" fill="#0EBFCF"/>
<path id="Vector_9" d="M70.2527 13.1118H66.062V28.742H70.2527V13.1118Z" fill="#202F33"/>
<path id="Vector_10" d="M73.8254 20.6117C73.8339 20.719 73.839 20.828 73.839 20.937C73.839 22.3454 73.1411 23.5929 72.0679 24.3625C71.7928 24.5603 71.4923 24.7246 71.1731 24.8537V28.7219C72.219 28.5693 73.2005 28.2172 74.0733 27.7041C76.4166 26.3292 77.989 23.8041 77.989 20.9168C77.989 20.8146 77.9856 20.7123 77.9805 20.61C77.8327 16.7838 74.9274 13.6567 71.1714 13.1101V17.0168C72.6385 17.6087 73.698 18.9803 73.8237 20.61L73.8254 20.6117Z" fill="#202F33"/>
<path id="Vector_11" d="M82.1186 25.6887C82.0473 25.5982 81.9794 25.5077 81.9114 25.4138C81.9777 25.506 82.0473 25.5982 82.1186 25.6887Z" fill="#202F33"/>
<path id="Vector_12" d="M81.8995 16.3042C81.8995 16.3042 81.908 16.2925 81.9114 16.2858C81.908 16.2908 81.9029 16.2975 81.8995 16.3042Z" fill="#202F33"/>
<path id="Vector_13" d="M81.8995 25.397C81.8333 25.3048 81.7705 25.2126 81.7094 25.117C81.7705 25.2109 81.835 25.3048 81.8995 25.397Z" fill="#202F33"/>
<path id="Vector_14" d="M81.6924 25.0918C81.5599 24.8873 81.436 24.6743 81.3222 24.458C81.436 24.676 81.5582 24.8873 81.6924 25.0918Z" fill="#202F33"/>
<path id="Vector_15" d="M83.1323 26.7551C83.0593 26.6914 82.9863 26.6243 82.9149 26.5589C82.9863 26.626 83.0576 26.6914 83.1323 26.7551Z" fill="#202F33"/>
<path id="Vector_16" d="M82.8318 26.4785C82.7774 26.4248 82.7231 26.3712 82.6688 26.3158C82.7231 26.3712 82.7757 26.4248 82.8318 26.4785Z" fill="#202F33"/>
<path id="Vector_17" d="M82.5991 26.2454C82.5261 26.1683 82.4548 26.0911 82.3852 26.0107C82.4548 26.0895 82.5261 26.1683 82.5991 26.2454Z" fill="#202F33"/>
<path id="Vector_18" d="M83.9728 14.3023C84.0204 14.2704 84.0696 14.2386 84.1189 14.2067C84.0696 14.2369 84.0221 14.2687 83.9728 14.3023Z" fill="#202F33"/>
<path id="Vector_19" d="M84.9034 13.7708C84.9933 13.7272 85.085 13.6852 85.1767 13.6433C85.085 13.6836 84.9933 13.7272 84.9034 13.7708Z" fill="#202F33"/>
<path id="Vector_20" d="M82.8318 15.2228C82.8589 15.1959 82.8878 15.1691 82.915 15.1423C82.8861 15.1691 82.8589 15.1959 82.8318 15.2228Z" fill="#202F33"/>
<path id="Vector_21" d="M83.6808 27.1944C83.6179 27.1491 83.5568 27.1022 83.494 27.0553C83.5551 27.1022 83.6179 27.1491 83.6808 27.1944Z" fill="#202F33"/>
<path id="Vector_22" d="M82.5991 15.4558C82.6212 15.4324 82.645 15.4089 82.6687 15.3854C82.645 15.4089 82.6229 15.4324 82.5991 15.4558Z" fill="#202F33"/>
<path id="Vector_23" d="M83.1323 14.9444C83.1663 14.9159 83.2002 14.8874 83.2325 14.8589C83.1985 14.8874 83.1646 14.9159 83.1323 14.9444Z" fill="#202F33"/>
<path id="Vector_24" d="M86.3908 28.4804C86.3246 28.4637 86.2601 28.4452 86.1956 28.4268C86.2601 28.4452 86.3263 28.4637 86.3908 28.4804Z" fill="#202F33"/>
<path id="Vector_25" d="M89.1688 28.7085C89.1332 28.7118 89.0992 28.7152 89.0635 28.7169C89.0992 28.7135 89.1332 28.7118 89.1688 28.7085Z" fill="#202F33"/>
<path id="Vector_26" d="M89.4796 28.6749C89.449 28.6783 89.4185 28.6816 89.3896 28.685C89.4202 28.6816 89.4507 28.6783 89.4796 28.6749Z" fill="#202F33"/>
<path id="Vector_27" d="M88.8428 28.7303C88.8106 28.7303 88.7783 28.7336 88.746 28.7353C88.7783 28.7353 88.8106 28.732 88.8428 28.7303Z" fill="#202F33"/>
<path id="Vector_28" d="M91.6751 28.0629C91.6751 28.0629 91.6632 28.068 91.6581 28.0713C91.6632 28.068 91.67 28.0663 91.6751 28.0629Z" fill="#202F33"/>
<path id="Vector_29" d="M91.9611 27.9305C91.9611 27.9305 91.9555 27.9324 91.9536 27.9342C91.9555 27.9342 91.9592 27.9324 91.9611 27.9305Z" fill="#202F33"/>
<path id="Vector_30" d="M90.4695 28.4821C90.4474 28.4888 90.4237 28.4939 90.3999 28.5006C90.4237 28.4955 90.4457 28.4888 90.4695 28.4821Z" fill="#202F33"/>
<path id="Vector_31" d="M86.0546 28.3866C85.9731 28.3614 85.8916 28.3346 85.8101 28.3078C85.8916 28.3363 85.9714 28.3614 86.0546 28.3866Z" fill="#202F33"/>
<path id="Vector_32" d="M85.6301 28.2424C85.5792 28.2239 85.5282 28.2038 85.4773 28.1837C85.5282 28.2038 85.5792 28.2222 85.6301 28.2424Z" fill="#202F33"/>
<path id="Vector_33" d="M84.9034 27.9305C84.8626 27.9104 84.8236 27.8919 84.7828 27.8718C84.8219 27.8919 84.8626 27.9121 84.9034 27.9305Z" fill="#202F33"/>
<path id="Vector_34" d="M84.2479 27.5734C84.2038 27.5465 84.1613 27.5214 84.1189 27.4929C84.1613 27.5197 84.2055 27.5465 84.2479 27.5734Z" fill="#202F33"/>
<path id="Vector_35" d="M83.9728 27.3973C83.9304 27.3688 83.8879 27.3403 83.8455 27.3101C83.8879 27.3386 83.9304 27.3688 83.9728 27.3973Z" fill="#202F33"/>
<path id="Vector_36" d="M86.8238 28.581C86.722 28.5609 86.6201 28.5374 86.5182 28.5123C86.6201 28.5374 86.722 28.5592 86.8238 28.581Z" fill="#202F33"/>
<path id="Vector_37" d="M87.6185 28.7018C87.5064 28.69 87.3944 28.6766 87.284 28.6615C87.3944 28.6766 87.5064 28.6917 87.6185 28.7018Z" fill="#202F33"/>
<path id="Vector_38" d="M87.1753 13.0565C87.211 13.0514 87.2466 13.0447 87.2823 13.0397C87.2466 13.0447 87.211 13.0498 87.1753 13.0565Z" fill="#202F33"/>
<path id="Vector_39" d="M84.5009 13.9803C84.4143 14.029 84.3294 14.0776 84.2462 14.1296C84.2819 14.1078 84.3175 14.086 84.3532 14.0642C84.4024 14.0357 84.4517 14.0088 84.4992 13.982L84.5009 13.9803Z" fill="#202F33"/>
<path id="Vector_40" d="M88.8428 12.971C88.9158 12.9743 88.9905 12.9793 89.0635 12.9844C88.9905 12.9793 88.9175 12.9743 88.8428 12.971Z" fill="#202F33"/>
<path id="Vector_41" d="M87.9768 12.9726C88.0091 12.971 88.0413 12.9693 88.0736 12.9676C88.0413 12.9676 88.0091 12.971 87.9768 12.9726Z" fill="#202F33"/>
<path id="Vector_42" d="M89.1688 12.9928C89.2418 12.9995 89.3166 13.0078 89.3896 13.0162C89.3166 13.0078 89.2435 12.9995 89.1688 12.9928Z" fill="#202F33"/>
<path id="Vector_43" d="M90.7667 13.3013C91.0723 13.3935 91.3695 13.5025 91.6581 13.6299C91.3695 13.5042 91.0723 13.3935 90.7667 13.3013Z" fill="#202F33"/>
<path id="Vector_44" d="M80.4392 20.8498C80.4392 22.1492 80.7585 23.3749 81.3222 24.4564C80.8026 23.4604 80.4919 22.342 80.446 21.1566C80.4426 21.0543 80.4375 20.9537 80.4375 20.8498H80.4392Z" fill="#202F33"/>
<path id="Vector_45" d="M86.0546 13.3147C86.1022 13.2996 86.148 13.2862 86.1956 13.2728C86.148 13.2862 86.1005 13.2996 86.0546 13.3147Z" fill="#202F33"/>
<path id="Vector_46" d="M88.8768 16.6362C89.5339 16.6362 90.1554 16.7838 90.7123 17.0437L90.731 17.0135C90.1707 16.7469 89.5407 16.5977 88.8768 16.5977C87.9361 16.5977 87.0667 16.8978 86.3603 17.4042C85.2871 18.1738 84.5892 19.4212 84.5892 20.8297C84.5892 20.8364 84.5892 20.8431 84.5892 20.8481C84.5892 20.7458 84.5943 20.6436 84.6028 20.5413C84.7709 18.3549 86.6201 16.6346 88.8768 16.6346V16.6362Z" fill="#202F33"/>
<path id="Vector_47" d="M85.6301 13.4589C85.6896 13.4371 85.749 13.4153 85.8101 13.3935C85.749 13.4136 85.6896 13.4354 85.6301 13.4589Z" fill="#202F33"/>
<path id="Vector_48" d="M90.4695 13.2191C90.5527 13.2409 90.6342 13.2627 90.7157 13.2879C90.6342 13.2644 90.5527 13.2409 90.4695 13.2191Z" fill="#202F33"/>
<path id="Vector_49" d="M92.5038 14.0591C92.3272 13.9552 92.1455 13.8596 91.9604 13.7691C92.1455 13.8596 92.3255 13.9569 92.5021 14.0608L92.5038 14.0591Z" fill="#202F33"/>
<path id="Vector_50" d="M86.3908 13.2191C86.4333 13.2074 86.4757 13.1973 86.5182 13.1856C86.4757 13.1956 86.4333 13.2074 86.3908 13.2191Z" fill="#202F33"/>
<path id="Vector_51" d="M89.7835 13.0716C89.8888 13.09 89.9924 13.1085 90.096 13.1302C89.9924 13.1085 89.8888 13.0883 89.7835 13.0716Z" fill="#202F33"/>
<path id="Vector_52" d="M91.9536 13.7657C91.9536 13.7657 91.9592 13.7676 91.9611 13.7695C91.9592 13.7695 91.9555 13.7676 91.9536 13.7657Z" fill="#202F33"/>
<path id="Vector_53" d="M85.1784 28.0579C85.0867 28.0177 84.995 27.9741 84.9034 27.9305C84.9933 27.9741 85.085 28.0177 85.1784 28.0579Z" fill="#202F33"/>
<path id="Vector_54" d="M87.284 28.6599C87.2484 28.6548 87.2127 28.6498 87.177 28.6431C87.2127 28.6481 87.2484 28.6548 87.284 28.6599Z" fill="#202F33"/>
<path id="Vector_55" d="M86.5182 28.514C86.4757 28.5039 86.4333 28.4922 86.3908 28.4805C86.4333 28.4922 86.4757 28.5023 86.5182 28.514Z" fill="#202F33"/>
<path id="Vector_56" d="M86.1956 28.4268C86.148 28.4134 86.1005 28.4 86.0546 28.3849C86.1022 28.4 86.148 28.4134 86.1956 28.4268Z" fill="#202F33"/>
<path id="Vector_57" d="M91.6581 13.6299C91.6581 13.6299 91.67 13.6349 91.6751 13.6383C91.67 13.6349 91.6632 13.6333 91.6581 13.6299Z" fill="#202F33"/>
<path id="Vector_58" d="M85.8101 28.3061C85.7507 28.286 85.6896 28.2642 85.6301 28.2407C85.6896 28.2625 85.749 28.2843 85.8101 28.3061Z" fill="#202F33"/>
<path id="Vector_59" d="M84.2479 27.5733C84.3311 27.6237 84.416 27.674 84.5026 27.7226C84.4534 27.6957 84.4041 27.6672 84.3566 27.6404C84.3209 27.6186 84.2853 27.5968 84.2496 27.575L84.2479 27.5733Z" fill="#202F33"/>
<path id="Vector_60" d="M90.7157 28.4134C90.6342 28.4369 90.5527 28.4603 90.4695 28.4821C90.5527 28.4603 90.6342 28.4385 90.7157 28.4134Z" fill="#202F33"/>
<path id="Vector_61" d="M90.096 28.571C89.9924 28.5928 89.8888 28.6129 89.7835 28.6297C89.8888 28.6112 89.9924 28.5928 90.096 28.571Z" fill="#202F33"/>
<path id="Vector_62" d="M92.5038 27.6421C92.3272 27.7444 92.1472 27.8416 91.9621 27.9322C92.1472 27.8416 92.3289 27.746 92.5055 27.6421H92.5038Z" fill="#202F33"/>
<path id="Vector_63" d="M91.6581 28.0713C91.3695 28.1971 91.0723 28.3078 90.7667 28.4C91.0723 28.3078 91.3695 28.1988 91.6581 28.0713Z" fill="#202F33"/>
<path id="Vector_64" d="M85.4773 13.5176C85.5282 13.4974 85.5792 13.479 85.6301 13.4589C85.5792 13.4773 85.5282 13.4974 85.4773 13.5176Z" fill="#202F33"/>
<path id="Vector_65" d="M88.0753 28.7336C88.043 28.7336 88.0108 28.7303 87.9785 28.7286C88.0108 28.7303 88.043 28.732 88.0753 28.7336Z" fill="#202F33"/>
<path id="Vector_66" d="M88.8768 25.065C86.6201 25.065 84.7726 23.343 84.6028 21.1583C84.5943 21.0577 84.5909 20.9554 84.5892 20.8515C84.5892 20.8582 84.5892 20.8649 84.5892 20.8699C84.5892 22.2783 85.2871 23.5258 86.3603 24.2954C87.0667 24.8018 87.9361 25.1019 88.8768 25.1019C89.5407 25.1019 90.169 24.9527 90.731 24.6861L90.7123 24.6559C90.1554 24.9175 89.5339 25.0633 88.8768 25.0633V25.065Z" fill="#202F33"/>
<path id="Vector_67" d="M89.3896 28.685C89.3166 28.6934 89.2435 28.7018 89.1688 28.7085C89.2418 28.7018 89.3166 28.6934 89.3896 28.685Z" fill="#202F33"/>
<path id="Vector_68" d="M89.0635 28.7169C88.9905 28.7219 88.9175 28.7269 88.8428 28.7303C88.9158 28.7269 88.9905 28.7219 89.0635 28.7169Z" fill="#202F33"/>
<path id="Vector_69" d="M81.3222 17.2432C80.7584 18.3247 80.4392 19.5503 80.4392 20.8498C80.4392 20.7475 80.4426 20.6452 80.4477 20.5429C80.4935 19.3575 80.8043 18.2392 81.3239 17.2432H81.3222Z" fill="#202F33"/>
<path id="Vector_70" d="M82.6688 15.3854C82.7214 15.3301 82.7757 15.2764 82.8318 15.2228C82.7774 15.2764 82.7231 15.3301 82.6688 15.3854Z" fill="#202F33"/>
<path id="Vector_71" d="M82.9149 15.1423C82.9863 15.0752 83.0576 15.0098 83.1323 14.9461C83.0593 15.0098 82.9863 15.0769 82.9149 15.1423Z" fill="#202F33"/>
<path id="Vector_72" d="M82.3869 15.6906C82.4565 15.6118 82.5278 15.533 82.6008 15.4558C82.5278 15.533 82.4565 15.6101 82.3869 15.6906Z" fill="#202F33"/>
<path id="Vector_73" d="M82.1593 15.9622C82.2171 15.8884 82.2782 15.8163 82.3393 15.7459C82.2782 15.8163 82.2188 15.8884 82.1593 15.9622Z" fill="#202F33"/>
<path id="Vector_74" d="M87.284 13.0397C87.3944 13.0246 87.5064 13.0095 87.6185 12.9995C87.5064 13.0112 87.3944 13.0246 87.284 13.0397Z" fill="#202F33"/>
<path id="Vector_75" d="M81.9131 16.2858C81.9793 16.1936 82.049 16.1014 82.1203 16.0108C82.049 16.1014 81.981 16.1919 81.9131 16.2858Z" fill="#202F33"/>
<path id="Vector_76" d="M86.5182 13.1873C86.6201 13.1621 86.722 13.1403 86.8238 13.1185C86.722 13.1386 86.6201 13.1621 86.5182 13.1873Z" fill="#202F33"/>
<path id="Vector_77" d="M84.7828 13.8294C84.8219 13.8093 84.8626 13.7892 84.9034 13.7708C84.8626 13.7909 84.8236 13.8093 84.7828 13.8294Z" fill="#202F33"/>
<path id="Vector_78" d="M85.8101 13.3952C85.8916 13.3667 85.9714 13.3415 86.0546 13.3164C85.9731 13.3415 85.8916 13.3683 85.8101 13.3952Z" fill="#202F33"/>
<path id="Vector_79" d="M84.1172 14.2084C84.1596 14.1815 84.2038 14.1547 84.2462 14.1279C84.2021 14.1547 84.1596 14.1799 84.1172 14.2084Z" fill="#202F33"/>
<path id="Vector_80" d="M81.7094 16.5826C81.7705 16.4887 81.835 16.3948 81.8995 16.3026C81.8333 16.3948 81.7705 16.487 81.7094 16.5826Z" fill="#202F33"/>
<path id="Vector_81" d="M83.494 14.646C83.5551 14.599 83.6179 14.5521 83.6808 14.5068C83.6179 14.5521 83.5568 14.599 83.494 14.646Z" fill="#202F33"/>
<path id="Vector_82" d="M83.8438 14.3894C83.8862 14.3609 83.9287 14.3308 83.9711 14.3023C83.9287 14.3308 83.8862 14.3593 83.8438 14.3894Z" fill="#202F33"/>
<path id="Vector_83" d="M86.1956 13.2728C86.2601 13.2543 86.3263 13.2359 86.3908 13.2191C86.3246 13.2359 86.2601 13.2543 86.1956 13.2728Z" fill="#202F33"/>
<path id="Vector_84" d="M82.915 26.559C82.8861 26.5321 82.8589 26.5053 82.8318 26.4785C82.8589 26.5053 82.8878 26.5321 82.915 26.559Z" fill="#202F33"/>
<path id="Vector_85" d="M83.2325 26.8423C83.1985 26.8138 83.1646 26.7853 83.1323 26.7568C83.1663 26.7853 83.2002 26.8138 83.2325 26.8423Z" fill="#202F33"/>
<path id="Vector_86" d="M89.3896 13.0162C89.4202 13.0196 89.4507 13.0229 89.4796 13.0263C89.449 13.0229 89.4185 13.0196 89.3896 13.0162Z" fill="#202F33"/>
<path id="Vector_87" d="M84.1172 27.4929C84.0679 27.4627 84.0204 27.4308 83.9711 27.3973C84.0187 27.4292 84.0679 27.461 84.1172 27.4929Z" fill="#202F33"/>
<path id="Vector_88" d="M82.6687 26.3158C82.645 26.2924 82.6229 26.2689 82.5991 26.2454C82.6212 26.2689 82.645 26.2924 82.6687 26.3158Z" fill="#202F33"/>
<path id="Vector_89" d="M88.746 12.9659C88.7783 12.9659 88.8106 12.9693 88.8428 12.971C88.8106 12.971 88.7783 12.9676 88.746 12.9659Z" fill="#202F33"/>
<path id="Vector_90" d="M81.3222 17.2432C81.436 17.0252 81.5599 16.814 81.6924 16.6094C81.5599 16.814 81.436 17.0269 81.3222 17.2432Z" fill="#202F33"/>
<path id="Vector_91" d="M90.3999 13.2007C90.4237 13.2057 90.4457 13.2124 90.4695 13.2191C90.4474 13.2124 90.4237 13.2074 90.3999 13.2007Z" fill="#202F33"/>
<path id="Vector_92" d="M89.0635 12.9844C89.0992 12.9877 89.1332 12.9894 89.1688 12.9928C89.1332 12.9894 89.0992 12.9861 89.0635 12.9844Z" fill="#202F33"/>
<path id="Vector_93" d="M81.9131 25.4154C81.9131 25.4154 81.9046 25.4037 81.9012 25.397C81.9046 25.402 81.9097 25.4087 81.9131 25.4154Z" fill="#202F33"/>
<path id="Vector_94" d="M88.8768 25.1036C87.9361 25.1036 87.0667 24.8035 86.3603 24.2971C85.2871 23.5275 84.5892 22.28 84.5892 20.8716C84.5892 20.8649 84.5892 20.8582 84.5892 20.8531C84.5892 20.8464 84.5892 20.8397 84.5892 20.8347C84.5892 19.4263 85.2871 18.1788 86.3603 17.4092C87.0667 16.9028 87.9361 16.6027 88.8768 16.6027C89.5407 16.6027 90.169 16.7519 90.731 17.0185L92.5021 14.0659C92.3255 13.9619 92.1455 13.8647 91.9604 13.7741C91.9587 13.7741 91.9553 13.7724 91.9536 13.7708C91.8619 13.7255 91.7685 13.6836 91.6751 13.6416C91.67 13.6383 91.6632 13.6366 91.6581 13.6333C91.3695 13.5075 91.0723 13.3969 90.7667 13.3046C90.7497 13.2996 90.7327 13.2946 90.7157 13.2895C90.6342 13.2661 90.5527 13.2426 90.4695 13.2208C90.4474 13.2141 90.4237 13.2091 90.3999 13.2024C90.3167 13.1822 90.2335 13.1621 90.1486 13.1437C90.1316 13.1403 90.1129 13.1353 90.096 13.1319C89.9924 13.1101 89.8888 13.09 89.7835 13.0732C89.7818 13.0732 89.7801 13.0732 89.7767 13.0732C89.6782 13.0565 89.5798 13.0431 89.4796 13.0297C89.449 13.0263 89.4184 13.0229 89.3896 13.0196C89.3166 13.0112 89.2435 13.0028 89.1688 12.9961C89.1332 12.9928 89.0992 12.9894 89.0636 12.9877C88.9905 12.9827 88.9175 12.9777 88.8428 12.9743C88.8105 12.9743 88.7783 12.971 88.746 12.9693C88.6407 12.9659 88.5355 12.9626 88.4302 12.9626C88.3113 12.9626 88.1925 12.9659 88.0736 12.971C88.0413 12.971 88.0091 12.9743 87.9768 12.976C87.8783 12.981 87.7798 12.9894 87.6813 12.9978C87.661 12.9995 87.6389 13.0012 87.6185 13.0028C87.5065 13.0146 87.3944 13.028 87.284 13.0431C87.2484 13.0481 87.2127 13.0531 87.177 13.0598C87.0955 13.0732 87.014 13.0867 86.9325 13.1018C86.8969 13.1085 86.8612 13.1152 86.8255 13.1219C86.7237 13.142 86.6218 13.1655 86.5199 13.1906C86.4774 13.2007 86.435 13.2124 86.3925 13.2242C86.3263 13.2409 86.2618 13.2594 86.1973 13.2778C86.1497 13.2912 86.1022 13.3046 86.0563 13.3197C85.9748 13.3449 85.8933 13.3717 85.8118 13.3985C85.7524 13.4186 85.6913 13.4404 85.6318 13.4639C85.5809 13.4824 85.5299 13.5025 85.479 13.5226C85.4247 13.5444 85.3703 13.5662 85.316 13.588C85.2701 13.6081 85.2243 13.6282 85.1784 13.6484C85.0868 13.6886 84.9951 13.7322 84.9051 13.7758C84.8643 13.7959 84.8253 13.8144 84.7845 13.8345C84.7285 13.863 84.6724 13.8915 84.6181 13.9217C84.579 13.9418 84.5417 13.9636 84.5026 13.9854C84.4534 14.0122 84.4041 14.0407 84.3566 14.0675C84.3209 14.0893 84.2853 14.1111 84.2496 14.1329C84.2055 14.1598 84.163 14.1849 84.1206 14.2134C84.0713 14.2436 84.0238 14.2754 83.9745 14.309C83.9321 14.3375 83.8896 14.366 83.8472 14.3962C83.7912 14.4347 83.7368 14.4733 83.6825 14.5135C83.6197 14.5588 83.5585 14.6058 83.4957 14.6527C83.4566 14.6829 83.4176 14.7147 83.3785 14.7466C83.3293 14.7852 83.2817 14.8254 83.2342 14.8656C83.2002 14.8941 83.1663 14.9226 83.134 14.9512C83.061 15.0149 82.988 15.0819 82.9167 15.1473C82.8878 15.1742 82.8606 15.201 82.8335 15.2278C82.7791 15.2815 82.7248 15.3351 82.6704 15.3904C82.6467 15.4139 82.6246 15.4374 82.6008 15.4609C82.5278 15.538 82.4565 15.6151 82.3869 15.6956C82.3716 15.7141 82.3546 15.7325 82.3393 15.7509C82.2782 15.8214 82.2188 15.8935 82.1593 15.9672C82.1458 15.984 82.1322 16.0008 82.1186 16.0175C82.0473 16.1081 81.9794 16.1986 81.9114 16.2925C81.908 16.2975 81.9029 16.3043 81.8995 16.311C81.8333 16.4032 81.7705 16.4954 81.7094 16.591C81.7043 16.5994 81.6975 16.6077 81.6924 16.6161C81.5599 16.8207 81.436 17.0336 81.3222 17.2499C80.8026 18.2459 80.4919 19.3642 80.446 20.5497C80.4426 20.6519 80.4375 20.7525 80.4375 20.8565C80.4375 20.9605 80.4409 21.0611 80.446 21.1633C80.4919 22.3488 80.8026 23.4671 81.3222 24.4631C81.436 24.6811 81.5599 24.8923 81.6924 25.0969C81.6975 25.1053 81.7043 25.1136 81.7094 25.122C81.7705 25.2159 81.835 25.3098 81.8995 25.402C81.9029 25.4071 81.908 25.4138 81.9114 25.4205C81.9777 25.5127 82.0473 25.6049 82.1186 25.6955C82.1322 25.7122 82.1458 25.729 82.1593 25.7458C82.2171 25.8195 82.2782 25.8916 82.3393 25.9621C82.3546 25.9805 82.3716 25.9989 82.3869 26.0174C82.4565 26.0962 82.5278 26.175 82.6008 26.2521C82.6229 26.2756 82.6467 26.2991 82.6704 26.3225C82.7231 26.3779 82.7774 26.4315 82.8335 26.4852C82.8606 26.512 82.8895 26.5388 82.9167 26.5657C82.988 26.6327 83.0593 26.6981 83.134 26.7618C83.168 26.7903 83.2019 26.8188 83.2342 26.8473C83.2817 26.8876 83.3293 26.9278 83.3785 26.9664C83.4176 26.9983 83.4566 27.0301 83.4957 27.0603C83.5568 27.1072 83.6197 27.1542 83.6825 27.1995C83.7368 27.2397 83.7912 27.2783 83.8472 27.3168C83.8896 27.3453 83.9321 27.3755 83.9745 27.404C84.0221 27.4359 84.0713 27.4677 84.1206 27.4996C84.163 27.5264 84.2072 27.5532 84.2496 27.5801C84.2853 27.6019 84.3209 27.6237 84.3566 27.6455C84.4058 27.674 84.4551 27.7008 84.5026 27.7276C84.5417 27.7494 84.579 27.7712 84.6181 27.7913C84.6724 27.8215 84.7285 27.85 84.7845 27.8785C84.8236 27.8986 84.8643 27.9188 84.9051 27.9372C84.9951 27.9808 85.0868 28.0244 85.1801 28.0646C85.226 28.0848 85.2718 28.1049 85.3177 28.125C85.372 28.1468 85.4264 28.1686 85.4807 28.1904C85.5316 28.2105 85.5826 28.229 85.6335 28.2491C85.693 28.2709 85.7524 28.2927 85.8135 28.3145C85.895 28.343 85.9748 28.3681 86.058 28.3933C86.1056 28.4084 86.1514 28.4218 86.199 28.4352C86.2635 28.4536 86.3297 28.4721 86.3942 28.4888C86.4367 28.5006 86.4791 28.5106 86.5216 28.5224C86.6235 28.5475 86.7254 28.5693 86.8272 28.5911C86.8629 28.5978 86.8986 28.6045 86.9342 28.6112C87.0157 28.6263 87.0972 28.6397 87.1787 28.6532C87.2144 28.6582 87.25 28.6649 87.2857 28.6699C87.3961 28.685 87.5082 28.7001 87.6202 28.7102C87.6406 28.7118 87.6627 28.7135 87.683 28.7152C87.7815 28.7236 87.88 28.732 87.9785 28.737C88.0108 28.7387 88.043 28.7403 88.0753 28.742C88.1942 28.7471 88.313 28.7504 88.4319 28.7504C88.5372 28.7504 88.6424 28.7471 88.7477 28.7437C88.78 28.7437 88.8122 28.7403 88.8445 28.7387C88.9175 28.7353 88.9922 28.7303 89.0653 28.7253C89.1009 28.7219 89.1349 28.7202 89.1705 28.7169C89.2435 28.7102 89.3183 28.7018 89.3913 28.6934C89.4218 28.69 89.4524 28.6867 89.4813 28.6833C89.5814 28.6699 89.6799 28.6565 89.7784 28.6397C89.7801 28.6397 89.7818 28.6397 89.7852 28.6397C89.8905 28.6213 89.9941 28.6029 90.0977 28.5811C90.1146 28.5777 90.1333 28.5727 90.1503 28.5693C90.2352 28.5509 90.3184 28.5308 90.4016 28.5106C90.4254 28.5056 90.4474 28.4989 90.4712 28.4922C90.5544 28.4704 90.6359 28.4486 90.7174 28.4234C90.7344 28.4184 90.7514 28.4134 90.7684 28.4084C91.074 28.3161 91.3712 28.2072 91.6598 28.0797C91.6649 28.0764 91.6717 28.0747 91.6768 28.0713C91.7702 28.0294 91.8636 27.9875 91.9553 27.9422C91.957 27.9422 91.9604 27.9406 91.9621 27.9389C92.1472 27.8483 92.3272 27.7511 92.5038 27.6471L90.7327 24.6945C90.1724 24.9611 89.5424 25.1103 88.8785 25.1103L88.8768 25.1036Z" fill="#202F33"/>
<path id="Vector_95" d="M54.8974 13.1118H50.7066V28.742H54.8974V13.1118Z" fill="#202F33"/>
<path id="Vector_96" d="M63.571 18.9853C63.4334 17.6892 62.9953 16.4065 61.9578 15.372C60.776 14.1933 59.0151 13.3382 56.6939 13.1487C56.412 13.1252 56.1183 13.1152 55.8194 13.1118V16.6413C57.4309 16.3311 59.2461 17.4913 59.4481 19.1513C59.2461 20.8112 57.4309 21.9715 55.8194 21.6613V25.1908C56.1183 25.1874 56.4103 25.1773 56.6939 25.1539C59.0168 24.9644 60.776 24.1076 61.9578 22.9306C62.9953 21.896 63.4334 20.6134 63.571 19.3173C63.5828 19.2066 63.5828 19.0959 63.571 18.9853Z" fill="#202F33"/>
<path id="Vector_97" d="M107.832 13.1118V14.6091C106.48 13.5746 104.786 12.9592 102.943 12.9592C101.454 12.9592 100.06 13.3633 98.8663 14.0625C96.523 15.4374 94.9506 17.9625 94.9506 20.8498C94.9506 20.9521 94.954 21.0543 94.9591 21.1566C95.1221 25.3735 98.6337 28.742 102.943 28.742C104.431 28.742 105.823 28.3396 107.015 27.6404L105.224 24.6559C104.667 24.9175 104.045 25.0633 103.388 25.0633C101.131 25.0633 99.284 23.3414 99.1142 21.1566C99.1057 21.0493 99.1006 20.9403 99.1006 20.8313C99.1006 19.4229 99.7985 18.1754 100.872 17.4058C101.578 16.8995 102.447 16.5993 103.388 16.5993C105.755 16.5993 107.676 18.494 107.676 20.833C107.676 20.942 107.83 28.7437 107.83 28.7437H112.021V13.1135H107.83L107.832 13.1118Z" fill="#202F33"/>
<path id="Vector_98" d="M108.245 10.4375V11.9348C106.893 10.9002 105.198 10.2849 103.356 10.2849C101.867 10.2849 100.473 10.689 99.2789 11.3882C96.9356 12.763 95.3633 15.2882 95.3633 18.1754C95.3633 18.2777 95.3666 18.38 95.3717 18.4823C95.5348 22.6992 99.0463 26.0677 103.356 26.0677C104.843 26.0677 106.236 25.6653 107.428 24.9661L105.636 21.9816C105.079 22.2431 104.458 22.389 103.801 22.389C101.544 22.389 99.6966 20.667 99.5268 18.4823C99.5183 18.375 99.5132 18.266 99.5132 18.157C99.5132 16.7486 100.211 15.5011 101.284 14.7315C101.991 14.2251 102.86 13.925 103.801 13.925C106.168 13.925 108.088 15.8197 108.088 18.1587C108.088 18.2677 108.243 26.0693 108.243 26.0693H112.434V10.4375H108.243H108.245Z" fill="#0EBFCF"/>
<path id="Vector_99" d="M119.002 10.4375H114.811V26.0677H119.002V10.4375Z" fill="#0EBFCF"/>
<path id="Vector_100" d="M119.002 4.4617H114.811V8.13871H119.002V4.4617Z" fill="#202F33"/>
</g>
<defs>
<clipPath id="clip0_109_27626">
<rect width="119" height="44" fill="white"/>
</clipPath>
</defs>
</svg>
